<svg width="162" height="458" viewBox="0 0 162 458" fill="none" xmlns="http://www.w3.org/2000/svg">
<g filter="url(#filter0_d)">
<path d="M9 66.8726C66.8228 83.1583 74.0077 90.9396 66.5 115.424C34.4482 131.947 23.4754 115.338 9 66.8726Z" fill="#98C9A3"/>
<path d="M9 66.8726C34.8931 92.2186 53.6997 106.925 66.5 115.424M9 66.8726C66.8228 83.1583 74.0077 90.9396 66.5 115.424M9 66.8726C23.4754 115.338 34.4482 131.947 66.5 115.424M88.5 126.873C88.5 126.873 81.7789 125.57 66.5 115.424" stroke="#77BFA3" stroke-width="4"/>
</g>
<g filter="url(#filter1_d)">
<path d="M153 8.87256C106.451 25.1583 100.667 32.9396 106.711 57.4243C132.513 73.9475 141.347 57.3385 153 8.87256Z" fill="#98C9A3"/>
<path d="M153 8.87256C132.155 34.2186 117.015 48.9246 106.711 57.4243M153 8.87256C106.451 25.1583 100.667 32.9396 106.711 57.4243M153 8.87256C141.347 57.3385 132.513 73.9475 106.711 57.4243M89 68.8726C89 68.8726 94.4107 67.5698 106.711 57.4243" stroke="#77BFA3" stroke-width="4"/>
</g>
<g filter="url(#filter2_d)">
<path d="M82 165.373L79.5388 164.934L79.5137 165.075L79.5048 165.218L82 165.373ZM80 23.5C80 22.1193 78.8807 21 77.5 21C76.1193 21 75 22.1193 75 23.5H80ZM75.5 270L73.0048 269.845L73 269.923V270H75.5ZM82 165.373C84.4612 165.811 84.4613 165.811 84.4615 165.81C84.4616 165.809 84.4618 165.808 84.4621 165.807C84.4625 165.804 84.4633 165.8 84.4642 165.795C84.466 165.784 84.4688 165.769 84.4723 165.749C84.4794 165.708 84.49 165.649 84.5037 165.57C84.5313 165.413 84.5717 165.181 84.624 164.878C84.7285 164.271 84.88 163.381 85.0689 162.241C85.4467 159.961 85.9742 156.681 86.574 152.677C87.7732 144.67 89.2636 133.753 90.4251 122.122C91.5857 110.501 92.4231 98.1183 92.3045 87.1951C92.1873 76.3959 91.14 66.6025 88.2655 60.4428L83.7345 62.5572C86.11 67.6475 87.1877 76.4632 87.3048 87.2494C87.4206 97.9118 86.6018 110.091 85.4499 121.625C84.2989 133.15 82.8205 143.982 81.6292 151.936C81.0337 155.912 80.5103 159.166 80.1362 161.423C79.9491 162.552 79.7994 163.432 79.6966 164.029C79.6452 164.327 79.6056 164.554 79.5789 164.707C79.5655 164.783 79.5554 164.84 79.5487 164.878C79.5453 164.897 79.5428 164.912 79.5411 164.921C79.5403 164.926 79.5397 164.929 79.5393 164.931C79.5391 164.932 79.539 164.933 79.5389 164.934C79.5388 164.934 79.5388 164.934 82 165.373ZM88.2655 60.4428C83.0442 49.2543 81.0388 43.1016 80.2819 38.3119C79.5099 33.4275 80 30.0156 80 23.5H75C75 29.3569 74.4901 33.695 75.3431 39.0925C76.2112 44.5847 78.4558 51.2457 83.7345 62.5572L88.2655 60.4428ZM79.5048 165.218L73.0048 269.845L77.9952 270.155L84.4952 165.528L79.5048 165.218ZM73 270V416H78V270H73Z" fill="#77BFA3"/>
</g>
<g filter="url(#filter3_d)">
<rect x="22" y="194" width="118" height="256.493" rx="20" fill="#C2FCFC" fill-opacity="0.7"/>
</g>
<g filter="url(#filter4_d)">
<rect x="51" y="174" width="60" height="20" fill="#C2FCFC" fill-opacity="0.7"/>
</g>
<g filter="url(#filter5_d)">
<rect x="39" y="131" width="85" height="43.0143" rx="20" fill="#C2FCFC" fill-opacity="0.7"/>
</g>
<rect x="19" y="253" width="123" height="107" rx="5" fill="#98C9A3"/>
<rect x="25" y="264" width="111" height="84" rx="42" fill="#EDEEC9"/>
<path d="M38.6 320.24C37.8267 320.24 37.2 320 36.72 319.52C36.2667 319.04 36.04 318.413 36.04 317.64V294.24C36.04 293.467 36.2533 292.867 36.68 292.44C37.1333 292.013 37.7467 291.8 38.52 291.8H52.56C54.1867 291.8 55 292.493 55 293.88C55 295.24 54.1867 295.92 52.56 295.92H41.12V303.6H51.76C53.3867 303.6 54.2 304.293 54.2 305.68C54.2 307.04 53.3867 307.72 51.76 307.72H41.12V317.64C41.12 318.413 40.8933 319.04 40.44 319.52C39.9867 320 39.3733 320.24 38.6 320.24ZM62.3378 320.24C61.6178 320.24 61.0178 320.04 60.5378 319.64C60.0845 319.213 59.8578 318.613 59.8578 317.84V293.96C59.8578 293.187 60.0845 292.6 60.5378 292.2C61.0178 291.8 61.6178 291.6 62.3378 291.6C63.0578 291.6 63.6578 291.8 64.1378 292.2C64.6178 292.6 64.8578 293.187 64.8578 293.96V317.84C64.8578 318.613 64.6178 319.213 64.1378 319.64C63.6578 320.04 63.0578 320.24 62.3378 320.24ZM78.4941 299.96C81.2141 299.96 83.2274 300.64 84.5341 302C85.8674 303.333 86.5341 305.373 86.5341 308.12V317.88C86.5341 318.6 86.3207 319.173 85.8941 319.6C85.4674 320 84.8807 320.2 84.1341 320.2C83.4407 320.2 82.8674 319.987 82.4141 319.56C81.9874 319.133 81.7741 318.573 81.7741 317.88V317C81.3207 318.04 80.6007 318.853 79.6141 319.44C78.6541 320.027 77.5341 320.32 76.2541 320.32C74.9474 320.32 73.7607 320.053 72.6941 319.52C71.6274 318.987 70.7874 318.253 70.1741 317.32C69.5607 316.387 69.2541 315.347 69.2541 314.2C69.2541 312.76 69.6141 311.627 70.3341 310.8C71.0807 309.973 72.2807 309.373 73.9341 309C75.5874 308.627 77.8674 308.44 80.7741 308.44H81.7741V307.52C81.7741 306.213 81.4941 305.267 80.9341 304.68C80.3741 304.067 79.4674 303.76 78.2141 303.76C77.4407 303.76 76.6541 303.88 75.8541 304.12C75.0541 304.333 74.1074 304.653 73.0141 305.08C72.3207 305.427 71.8141 305.6 71.4941 305.6C71.0141 305.6 70.6141 305.427 70.2941 305.08C70.0007 304.733 69.8541 304.28 69.8541 303.72C69.8541 303.267 69.9607 302.88 70.1741 302.56C70.4141 302.213 70.8007 301.893 71.3341 301.6C72.2674 301.093 73.3741 300.693 74.6541 300.4C75.9607 300.107 77.2407 299.96 78.4941 299.96ZM77.2541 316.72C78.5874 316.72 79.6674 316.28 80.4941 315.4C81.3474 314.493 81.7741 313.333 81.7741 311.92V311.08H81.0541C79.2674 311.08 77.8807 311.16 76.8941 311.32C75.9074 311.48 75.2007 311.76 74.7741 312.16C74.3474 312.56 74.1341 313.107 74.1341 313.8C74.1341 314.653 74.4274 315.36 75.0141 315.92C75.6274 316.453 76.3741 316.72 77.2541 316.72ZM102.976 299.96C105.322 299.96 107.069 300.627 108.216 301.96C109.362 303.293 109.936 305.307 109.936 308V317.84C109.936 318.587 109.709 319.173 109.256 319.6C108.829 320.027 108.229 320.24 107.456 320.24C106.682 320.24 106.069 320.027 105.616 319.6C105.162 319.173 104.936 318.587 104.936 317.84V308.28C104.936 306.76 104.642 305.653 104.056 304.96C103.496 304.267 102.602 303.92 101.376 303.92C99.9356 303.92 98.7756 304.373 97.8956 305.28C97.0423 306.187 96.6156 307.4 96.6156 308.92V317.84C96.6156 318.587 96.389 319.173 95.9356 319.6C95.4823 320.027 94.869 320.24 94.0956 320.24C93.3223 320.24 92.709 320.027 92.2556 319.6C91.829 319.173 91.6156 318.587 91.6156 317.84V302.36C91.6156 301.667 91.8423 301.107 92.2956 300.68C92.749 300.253 93.3623 300.04 94.1356 300.04C94.829 300.04 95.389 300.253 95.8156 300.68C96.269 301.08 96.4956 301.613 96.4956 302.28V303.36C97.1623 302.267 98.0556 301.427 99.1756 300.84C100.296 300.253 101.562 299.96 102.976 299.96ZM125.174 316.52C126.507 316.6 127.174 317.2 127.174 318.32C127.174 318.96 126.907 319.453 126.374 319.8C125.867 320.12 125.134 320.253 124.174 320.2L123.094 320.12C118.614 319.8 116.374 317.4 116.374 312.92V304.2H114.374C113.654 304.2 113.094 304.04 112.694 303.72C112.321 303.4 112.134 302.933 112.134 302.32C112.134 301.707 112.321 301.24 112.694 300.92C113.094 300.6 113.654 300.44 114.374 300.44H116.374V296.76C116.374 296.04 116.601 295.467 117.054 295.04C117.507 294.613 118.121 294.4 118.894 294.4C119.641 294.4 120.241 294.613 120.694 295.04C121.147 295.467 121.374 296.04 121.374 296.76V300.44H124.774C125.494 300.44 126.041 300.6 126.414 300.92C126.814 301.24 127.014 301.707 127.014 302.32C127.014 302.933 126.814 303.4 126.414 303.72C126.041 304.04 125.494 304.2 124.774 304.2H121.374V313.28C121.374 315.253 122.281 316.307 124.094 316.44L125.174 316.52Z" fill="#666A5C"/>
<defs>
<filter id="filter0_d" x="0.043457" y="58.9619" width="94.8497" height="76.8736" filterUnits="userSpaceOnUse" color-interpolation-filters="sRGB">
<feFlood flood-opacity="0" result="BackgroundImageFix"/>
<feColorMatrix in="SourceAlpha" type="matrix" values="0 0 0 0 0 0 0 0 0 0 0 0 0 0 0 0 0 0 127 0"/>
<feOffset dy="1"/>
<feGaussianBlur stdDeviation="3"/>
<feColorMatrix type="matrix" values="0 0 0 0 0 0 0 0 0 0 0 0 0 0 0 0 0 0 0.25 0"/>
<feBlend mode="normal" in2="BackgroundImageFix" result="effect1_dropShadow"/>
<feBlend mode="normal" in="SourceGraphic" in2="effect1_dropShadow" result="shape"/>
</filter>
<filter id="filter1_d" x="82.5096" y="0.773438" width="79.2926" height="77.0431" filterUnits="userSpaceOnUse" color-interpolation-filters="sRGB">
<feFlood flood-opacity="0" result="BackgroundImageFix"/>
<feColorMatrix in="SourceAlpha" type="matrix" values="0 0 0 0 0 0 0 0 0 0 0 0 0 0 0 0 0 0 127 0"/>
<feOffset dy="1"/>
<feGaussianBlur stdDeviation="3"/>
<feColorMatrix type="matrix" values="0 0 0 0 0 0 0 0 0 0 0 0 0 0 0 0 0 0 0.25 0"/>
<feBlend mode="normal" in2="BackgroundImageFix" result="effect1_dropShadow"/>
<feBlend mode="normal" in="SourceGraphic" in2="effect1_dropShadow" result="shape"/>
</filter>
<filter id="filter2_d" x="67" y="16" width="31.3157" height="407" filterUnits="userSpaceOnUse" color-interpolation-filters="sRGB">
<feFlood flood-opacity="0" result="BackgroundImageFix"/>
<feColorMatrix in="SourceAlpha" type="matrix" values="0 0 0 0 0 0 0 0 0 0 0 0 0 0 0 0 0 0 127 0"/>
<feOffset dy="1"/>
<feGaussianBlur stdDeviation="3"/>
<feColorMatrix type="matrix" values="0 0 0 0 0 0 0 0 0 0 0 0 0 0 0 0 0 0 0.25 0"/>
<feBlend mode="normal" in2="BackgroundImageFix" result="effect1_dropShadow"/>
<feBlend mode="normal" in="SourceGraphic" in2="effect1_dropShadow" result="shape"/>
</filter>
<filter id="filter3_d" x="16" y="189" width="130" height="268.493" filterUnits="userSpaceOnUse" color-interpolation-filters="sRGB">
<feFlood flood-opacity="0" result="BackgroundImageFix"/>
<feColorMatrix in="SourceAlpha" type="matrix" values="0 0 0 0 0 0 0 0 0 0 0 0 0 0 0 0 0 0 127 0"/>
<feOffset dy="1"/>
<feGaussianBlur stdDeviation="3"/>
<feColorMatrix type="matrix" values="0 0 0 0 0 0 0 0 0 0 0 0 0 0 0 0 0 0 0.25 0"/>
<feBlend mode="normal" in2="BackgroundImageFix" result="effect1_dropShadow"/>
<feBlend mode="normal" in="SourceGraphic" in2="effect1_dropShadow" result="shape"/>
</filter>
<filter id="filter4_d" x="45" y="169" width="72" height="32" filterUnits="userSpaceOnUse" color-interpolation-filters="sRGB">
<feFlood flood-opacity="0" result="BackgroundImageFix"/>
<feColorMatrix in="SourceAlpha" type="matrix" values="0 0 0 0 0 0 0 0 0 0 0 0 0 0 0 0 0 0 127 0"/>
<feOffset dy="1"/>
<feGaussianBlur stdDeviation="3"/>
<feColorMatrix type="matrix" values="0 0 0 0 0 0 0 0 0 0 0 0 0 0 0 0 0 0 0.25 0"/>
<feBlend mode="normal" in2="BackgroundImageFix" result="effect1_dropShadow"/>
<feBlend mode="normal" in="SourceGraphic" in2="effect1_dropShadow" result="shape"/>
</filter>
<filter id="filter5_d" x="33" y="126" width="97" height="55.0143" filterUnits="userSpaceOnUse" color-interpolation-filters="sRGB">
<feFlood flood-opacity="0" result="BackgroundImageFix"/>
<feColorMatrix in="SourceAlpha" type="matrix" values="0 0 0 0 0 0 0 0 0 0 0 0 0 0 0 0 0 0 127 0"/>
<feOffset dy="1"/>
<feGaussianBlur stdDeviation="3"/>
<feColorMatrix type="matrix" values="0 0 0 0 0 0 0 0 0 0 0 0 0 0 0 0 0 0 0.25 0"/>
<feBlend mode="normal" in2="BackgroundImageFix" result="effect1_dropShadow"/>
<feBlend mode="normal" in="SourceGraphic" in2="effect1_dropShadow" result="shape"/>
</filter>
</defs>
</svg>
